<?xml version="1.0" encoding="UTF-8"?>
<!DOCTYPE svg PUBLIC "-//W3C//DTD SVG 1.1//EN" "http://www.w3.org/Graphics/SVG/1.1/DTD/svg11.dtd">
<svg xmlns="http://www.w3.org/2000/svg" version="1.1" width="2291px" height="2291px" style="shape-rendering:geometricPrecision; text-rendering:geometricPrecision; image-rendering:optimizeQuality; fill-rule:evenodd; clip-rule:evenodd" xmlns:xlink="http://www.w3.org/1999/xlink">
<g><path style="opacity:0.997" fill="#ff9210" d="M 1131.5,-0.5 C 1139.83,-0.5 1148.17,-0.5 1156.5,-0.5C 1166.78,1.96657 1176.45,6.13324 1185.5,12C 1493.5,190 1801.5,368 2109.5,546C 2129.62,557.718 2141.12,575.218 2144,598.5C 2144.67,962.833 2144.67,1327.17 2144,1691.5C 2141.33,1712.68 2131.16,1729.18 2113.5,1741C 1800.17,1922 1486.83,2103 1173.5,2284C 1166.6,2286.91 1159.6,2289.08 1152.5,2290.5C 1146.83,2290.5 1141.17,2290.5 1135.5,2290.5C 1125.76,2288.48 1116.42,2284.98 1107.5,2280C 797.33,2100.41 486.997,1921.08 176.5,1742C 159.303,1731.12 148.803,1715.62 145,1695.5C 144.333,1328.17 144.333,960.833 145,593.5C 148.801,574.064 158.968,558.897 175.5,548C 488.167,367.333 800.833,186.667 1113.5,6C 1119.43,3.30408 1125.43,1.13742 1131.5,-0.5 Z M 1142.5,238.5 C 1150.38,241.774 1158.05,245.607 1165.5,250C 1419.92,397.293 1674.42,544.46 1929,691.5C 1929.67,993.833 1929.67,1296.17 1929,1598.5C 1667.64,1750.01 1405.98,1901.01 1144,2051.5C 882.714,1901.05 621.548,1750.38 360.5,1599.5C 359.167,1296.5 359.167,993.5 360.5,690.5C 621.464,540.17 882.131,389.503 1142.5,238.5 Z"/></g>
<g><path style="opacity:0.992" fill="#ff9210" d="M 1137.5,458.5 C 1150.05,457.721 1161.72,460.555 1172.5,467C 1361.33,575.581 1550,684.414 1738.5,793.5C 1740.04,797.063 1739.7,800.397 1737.5,803.5C 1707.99,821.093 1677.99,837.927 1647.5,854C 1645.5,854.667 1643.5,854.667 1641.5,854C 1475.67,758.167 1309.83,662.333 1144,566.5C 977.497,663.086 810.83,759.419 644,855.5C 643.333,1048.17 643.333,1240.83 644,1433.5C 809.588,1529.71 975.421,1625.55 1141.5,1721C 1142.33,1721.83 1143.17,1722.67 1144,1723.5C 1144.67,1758.83 1144.67,1794.17 1144,1829.5C 1142.38,1831.73 1140.21,1833.06 1137.5,1833.5C 945.803,1723.97 754.47,1613.8 563.5,1503C 552.517,1494.55 546.017,1483.38 544,1469.5C 543.333,1253.17 543.333,1036.83 544,820.5C 546.272,804.117 554.439,791.617 568.5,783C 754.003,675.747 939.67,568.747 1125.5,462C 1129.62,460.808 1133.62,459.641 1137.5,458.5 Z"/></g>
<g><path style="opacity:0.999" fill="#ff9211" d="M 1728.5,885.5 C 1731.93,885.107 1735.1,885.773 1738,887.5C 1738.33,888.5 1738.67,889.5 1739,890.5C 1740,1107.56 1739.66,1324.56 1738,1541.5C 1571.58,1639.3 1404.74,1736.46 1237.5,1833C 1233.73,1834.18 1230.56,1833.35 1228,1830.5C 1227.83,1605.64 1227.33,1380.81 1226.5,1156C 1226.86,1154.78 1227.36,1153.61 1228,1152.5C 1394.97,1063.6 1561.81,974.598 1728.5,885.5 Z"/></g>
</svg>
